<svg width="65" height="22" viewBox="0 0 65 22" fill="none" xmlns="http://www.w3.org/2000/svg">
<path d="M9.27 0.699999H11.04L19.89 22H17.67L14.91 15.34H5.34L2.61 22H0.36L9.27 0.699999ZM14.43 13.69L10.14 3.16L5.79 13.69H14.43ZM22.8234 0.699999L29.7834 9.97L36.7134 0.699999H39.0834L30.9234 11.5L38.8434 22H36.4734L29.7834 13.03L23.0634 22H20.6634L28.5834 11.5L20.4234 0.699999H22.8234Z" fill="white"/>
<path d="M41.8985 22V0.699999H43.9985V22H41.8985ZM64.4599 2.56H56.8699V22H54.7699V2.56H47.1799V0.699999H64.4599V2.56Z" fill="#EC7979"/>
</svg>
